# xmcd CD database file
#
# Track frame offsets:
#	150
#	16675
#	34565
#	45740
#
# Disc length: 867 seconds
#
# Revision: 0
# Processed by: cddbd v1.5PL3 Copyright (c) Steve Scherf et al.
# Submitted via: CDex 1.60beta1
#
DISCID=21036104
DTITLE=Nancy Wilson - Quiet Storm
DYEAR=1900
DGENRE=Jazz
TTITLE0=I Can't Teach My Old Heart New Tricks
TTITLE1=When October Goes
TTITLE2=With My Lover Beside Me
TTITLE3=Love Is Where You Find It/At Last
EXTD=
EXTT0=
EXTT1=
EXTT2=
EXTT3=
PLAYORDER=
